<svg id="Capa_1" enable-background="new 0 0 497 497" height="512" viewBox="0 0 497 497" width="512" xmlns="http://www.w3.org/2000/svg"><g><path d="m482.448 229.862-28.026-7.006c-1.241-10.069-3.209-19.913-5.84-29.482l23.189-17.182c7.083-5.248 9.686-14.644 6.312-22.788-3.374-8.145-11.857-12.948-20.577-11.651l-28.558 4.25c-4.974-8.739-10.564-17.081-16.713-24.968l14.869-24.782c4.536-7.559 3.344-17.235-2.889-23.469-6.234-6.234-15.91-7.425-23.469-2.889l-24.782 14.869c-7.887-6.148-16.229-11.738-24.968-16.713l4.25-28.558c1.297-8.72-3.506-17.203-11.65-20.577-8.145-3.374-17.54-.771-22.788 6.312l-17.182 23.189c-9.57-2.631-19.413-4.598-29.482-5.84l-7.006-28.025c-2.138-8.552-9.822-14.552-18.638-14.552s-16.5 6-18.638 14.552l-7.006 28.025c-10.07 1.241-19.913 3.209-29.482 5.84l-17.182-23.189c-5.248-7.083-14.644-9.685-22.788-6.312-8.145 3.374-12.948 11.857-11.651 20.577l4.25 28.558c-8.739 4.975-17.081 10.564-24.967 16.713l-24.783-14.869c-7.559-4.536-17.235-3.344-23.469 2.889-6.234 6.234-7.425 15.91-2.889 23.469l14.869 24.782c-6.148 7.886-11.738 16.229-16.713 24.968l-28.559-4.25c-8.72-1.298-17.203 3.506-20.577 11.651s-.771 17.54 6.312 22.788l23.189 17.182c-2.631 9.57-4.598 19.413-5.84 29.482l-28.026 7.006c-8.55 2.138-14.55 9.822-14.55 18.638s6 16.5 14.552 18.638l28.026 7.006c1.241 10.069 3.209 19.913 5.84 29.482l-23.189 17.182c-7.083 5.248-9.686 14.644-6.312 22.788 3.374 8.145 11.857 12.948 20.577 11.651l28.559-4.25c4.974 8.739 10.564 17.081 16.713 24.967l-14.869 24.782c-4.536 7.559-3.344 17.235 2.889 23.469 6.234 6.234 15.91 7.425 23.469 2.889l24.782-14.869c7.887 6.148 16.229 11.738 24.967 16.713l-4.25 28.559c-1.297 8.72 3.506 17.203 11.651 20.577s17.54.771 22.788-6.312l17.182-23.189c9.57 2.631 19.413 4.598 29.482 5.84l7.006 28.026c2.137 8.551 9.821 14.551 18.637 14.551s16.5-6 18.638-14.552l7.006-28.026c10.07-1.241 19.913-3.209 29.482-5.84l17.182 23.189c5.248 7.083 14.644 9.685 22.788 6.312 8.145-3.374 12.948-11.857 11.651-20.577l-4.25-28.559c8.739-4.974 17.081-10.564 24.968-16.713l24.782 14.869c7.559 4.536 17.235 3.344 23.469-2.889 6.234-6.234 7.425-15.91 2.889-23.469l-14.869-24.782c6.148-7.886 11.738-16.229 16.713-24.967l28.558 4.25c8.72 1.298 17.203-3.506 20.577-11.65 3.374-8.145.771-17.54-6.312-22.788l-23.189-17.182c2.631-9.57 4.598-19.413 5.84-29.482l28.026-7.006c8.551-2.138 14.551-9.822 14.551-18.638s-6-16.5-14.552-18.638zm-233.948 166.138c-81.462 0-147.5-66.038-147.5-147.5s66.038-147.5 147.5-147.5 147.5 66.038 147.5 147.5-66.038 147.5-147.5 147.5z" fill="#666ddc"/><path d="m268.55 72.12c88.59 9.96 157.45 85.13 157.45 176.38s-68.86 166.42-157.45 176.38c0 0 112.95-86.25 112.95-176.38s-112.95-176.38-112.95-176.38z" fill="#95b0ed"/><path d="m268.55 72.12c72.26 11.77 127.95 86.25 127.95 176.38s-55.69 164.61-127.95 176.38c-6.58.74-13.27 1.12-20.05 1.12-98.03 0-177.5-79.47-177.5-177.5s79.47-177.5 177.5-177.5c6.78 0 13.47.38 20.05 1.12zm77.99 161.38c10 0 17.31-9.63 14.41-19.2-11.36-37.39-40.86-66.89-78.25-78.25-9.57-2.9-19.2 4.41-19.2 14.41v39.93c21.08 5.43 37.68 22.03 43.11 43.11zm14.41 49.2c2.9-9.57-4.41-19.2-14.41-19.2h-39.93c-5.43 21.08-22.03 37.68-43.11 43.11v39.93c0 10 9.63 17.31 19.2 14.41 37.39-11.36 66.89-40.86 78.25-78.25zm-82.45-34.2c0-16.57-13.43-30-30-30s-30 13.43-30 30 13.43 30 30 30 30-13.43 30-30zm-45 98.04v-39.93c-21.08-5.43-37.68-22.03-43.11-43.11h-39.93c-10 0-17.31 9.63-14.41 19.2 11.36 37.39 40.86 66.89 78.25 78.25 9.57 2.9 19.2-4.41 19.2-14.41zm0-156.15v-39.93c0-10-9.63-17.31-19.2-14.41-37.39 11.36-66.89 40.86-78.25 78.25-2.9 9.57 4.41 19.2 14.41 19.2h39.93c5.43-21.08 22.03-37.68 43.11-43.11z" fill="#acd2f6"/></g></svg>